<svg width="213" height="213" viewBox="0 0 213 213" fill="none" xmlns="http://www.w3.org/2000/svg">
<circle cx="106.5" cy="106.5" r="106.5" fill="#202020"/>
<path d="M152.766 90.5938L149.391 101.891H147.656C147.812 101.391 147.922 101.016 147.984 100.766C148.328 99.6406 148.5 98.7031 148.5 97.9531C148.5 96.8906 148.047 96.2188 147.141 95.9375C146.234 95.6562 144.062 95.5156 140.625 95.5156H133.406L132.75 97.5312C130.094 106.031 127.141 113.125 123.891 118.812C120.672 124.5 116.625 129.688 111.75 134.375C106.781 139.219 101.141 143 94.8281 145.719C88.5156 148.438 82.25 149.797 76.0312 149.797C69 149.797 62.6719 148.297 57.0469 145.297C52.0156 142.641 48.0938 138.891 45.2812 134.047C42.4688 129.203 41.0625 123.812 41.0625 117.875C41.0625 110.031 43.5469 103.75 48.5156 99.0312C53.4844 94.3125 60.0938 91.9531 68.3438 91.9531C77.5938 91.9531 87.4688 96.2188 97.9688 104.75C101.469 107.594 106.312 112.188 112.5 118.531L113.953 119.984C115.516 117.328 116.297 114.531 116.297 111.594C116.297 107.031 114.312 103.25 110.344 100.25C106.375 97.25 101.156 95.5781 94.6875 95.2344C95.4688 93.8906 96.0781 92.3906 96.5156 90.7344L129.75 90.5938C130 89.7812 130.188 89.1719 130.312 88.7656C131.688 84.0156 132.812 80.6094 133.688 78.5469C134.562 76.4531 135.688 74.5312 137.062 72.7812C139.625 69.4688 143.141 66.3281 147.609 63.3594C152.172 60.3281 156.047 58.8125 159.234 58.8125C159.859 58.8125 160.656 58.9062 161.625 59.0938C161.219 61.4688 160.297 65.0938 158.859 69.9688L158.531 71.1406H156.797C157.359 69.1406 157.641 67.7344 157.641 66.9219C157.641 64.9219 156.562 63.9219 154.406 63.9219C151.062 63.9219 147.812 65.1719 144.656 67.6719C143 69.0156 141.703 70.6562 140.766 72.5938C139.828 74.5 138.562 78.1094 136.969 83.4219L135.188 89.4688L134.859 90.5938H152.766ZM128.438 95.5156L107.016 95.375C110.328 96.875 113.016 99.0781 115.078 101.984C117.141 104.859 118.172 107.875 118.172 111.031C118.172 115.938 116.344 121.375 112.688 127.344C103.812 116.844 95.1875 108.797 86.8125 103.203C78.4375 97.6094 70.8281 94.8125 63.9844 94.8125C58.0469 94.8125 53.125 96.7344 49.2188 100.578C45.3438 104.422 43.4062 109.281 43.4062 115.156C43.4062 124.094 46.8594 131.438 53.7656 137.188C60.7031 142.969 69.5312 145.859 80.25 145.859C92.1562 145.859 102.234 141.547 110.484 132.922C118.766 124.297 124.75 111.828 128.438 95.5156Z" fill="#DBD433"/>
</svg>
