<svg width="210" height="119" viewBox="0 0 210 119" fill="none" xmlns="http://www.w3.org/2000/svg">
<path d="M98.3167 36.5334L95.3461 48.4531H93.8195C93.9571 47.9255 94.0534 47.5298 94.1083 47.2661C94.4109 46.0791 94.5622 45.0899 94.5622 44.2986C94.5622 43.1774 94.1633 42.4685 93.3658 42.1717C92.5681 41.875 90.6565 41.7267 87.6309 41.7267H81.2773L80.6997 43.8533C78.3618 52.822 75.7625 60.3067 72.9021 66.3078C70.069 72.3089 66.5071 77.7824 62.2163 82.7283C57.843 87.8388 52.8784 91.8288 47.3224 94.6966C41.7663 97.5661 36.2515 99 30.7781 99C24.5895 99 19.0196 97.4173 14.0687 94.2519C9.64052 91.449 6.18862 87.4922 3.71317 82.3817C1.23773 77.2712 0 71.5834 0 65.3187C0 57.0424 2.18658 50.4149 6.56001 45.436C10.9332 40.4572 16.7505 37.9678 24.0119 37.9678C32.1534 37.9678 40.8449 42.4685 50.0866 51.4701C53.1671 54.4705 57.4304 59.3175 62.8764 66.0111L64.1555 67.5442C65.5306 64.7416 66.2182 61.7905 66.2182 58.6911C66.2182 53.877 64.4717 49.8874 60.9786 46.722C57.4855 43.5566 52.8921 41.7925 47.1986 41.4298C47.8862 40.012 48.4226 38.4293 48.8077 36.6817L78.0592 36.5334C78.2793 35.676 78.4443 35.0331 78.5543 34.6045C79.7645 29.5926 80.7547 25.9985 81.5248 23.8223C82.2949 21.6131 83.2851 19.5854 84.4954 17.7389C86.7507 14.2438 89.8451 10.9299 93.7782 7.79747C97.794 4.59916 101.205 3 104.01 3C104.56 3 105.262 3.09892 106.114 3.29676C105.757 5.80264 104.945 9.62754 103.68 14.7713L103.391 16.0079H101.865C102.36 13.8975 102.607 12.4137 102.607 11.5564C102.607 9.44616 101.658 8.39098 99.7606 8.39098C96.8175 8.39098 93.9571 9.71 91.1791 12.3477C89.7213 13.7657 88.5799 15.4967 87.7548 17.541C86.9296 19.5523 85.8156 23.3607 84.4128 28.966L82.8451 35.3463L82.5562 36.5334H98.3167ZM76.904 41.7267L58.0494 41.5782C60.9648 43.1609 63.3303 45.4856 65.1457 48.5519C66.961 51.5854 67.8685 54.7673 67.8685 58.0976C67.8685 63.2743 66.2595 69.0116 63.0415 75.3094C55.23 64.2306 47.6386 55.74 40.2673 49.838C32.896 43.9358 26.1986 40.9847 20.1749 40.9847C14.9489 40.9847 10.617 43.0125 7.1788 47.0683C3.76823 51.1238 2.06287 56.2511 2.06287 62.45C2.06287 71.8802 5.1022 79.6294 11.1808 85.6959C17.287 91.7956 25.0571 94.8454 34.4913 94.8454C44.9707 94.8454 53.841 90.2952 61.1023 81.1947C68.3912 72.0945 73.6584 58.9385 76.904 41.7267ZM117.666 50.9259C118.052 51.8493 118.243 52.6736 118.243 53.3991C118.243 56.5645 116.415 60.2078 112.757 64.3295C107.421 70.3635 102.882 73.3806 99.1418 73.3806C95.9236 73.3806 94.3146 71.1878 94.3146 66.8024C94.3146 61.8565 95.5661 56.6632 98.069 51.2229C100.6 45.7822 103.831 41.2979 107.765 37.7699C112.55 33.4834 116.814 31.3401 120.554 31.3401C122.727 31.3401 123.813 32.2963 123.813 34.2089C123.813 35.4617 123.291 36.9786 122.246 38.7591C121.201 40.5066 119.894 42.0893 118.326 43.5072C116.869 44.793 115.012 45.98 112.757 47.0683C110.529 48.1562 108.81 48.7003 107.6 48.7003C106.307 48.7003 105.413 47.843 104.918 46.1285C106.073 46.3263 106.994 46.4252 107.682 46.4252C110.433 46.4252 112.963 45.4856 115.273 43.606C117.611 41.6936 118.781 39.6328 118.781 37.4236C118.781 35.8409 117.928 35.0496 116.222 35.0496C113.169 35.0496 110.048 37.2918 106.857 41.7761C104.602 44.9414 102.745 48.6343 101.287 52.8549C99.8294 57.0755 99.1005 60.8344 99.1005 64.1316C99.1005 67.5278 100.283 69.226 102.649 69.226C105.234 69.226 107.916 67.5278 110.694 64.1316C113.499 60.7024 115.824 56.3006 117.666 50.9259ZM143.535 4.82991C143.205 9.77584 139.437 22.5034 132.23 43.0124L131.488 45.0404C134.486 41.1825 137.745 38.0171 141.266 35.5442C144.787 33.0712 147.826 31.8348 150.383 31.8348C152.914 31.8348 154.179 33.434 154.179 36.6323C154.179 40.2594 152.805 44.4798 150.053 49.2939C147.303 54.1079 143.797 58.4604 139.534 62.3511C131.776 69.3414 124.281 72.8365 117.047 72.8365L117.625 71.2538C122.769 56.9435 127.225 44.0183 130.993 32.4777C134.789 20.9372 136.686 14.4745 136.686 13.0897C136.686 12.1005 136.191 11.6059 135.2 11.6059C134.596 11.6059 133.619 11.9027 132.272 12.4962L131.818 10.9629C135.393 9.41324 139.299 7.36887 143.535 4.82991ZM123.236 67.8905C123.978 68.0224 124.542 68.0884 124.928 68.0884C131.006 68.0884 136.439 64.4119 141.225 57.0589C143.15 54.0913 144.745 50.9259 146.011 47.5627C147.303 44.1995 147.949 41.4793 147.949 39.402C147.949 37.094 147.042 35.9399 145.226 35.9399C142.091 35.9399 138.308 39.1713 133.88 45.6339C129.452 52.0636 125.905 59.4825 123.236 67.8905ZM178.852 31.9336L177.366 36.929C176.321 36.6652 175.399 36.5334 174.602 36.5334C171.411 36.5334 168.001 39.468 164.37 45.3371C162.664 48.1398 161.193 51.1898 159.955 54.487C158.746 57.7844 157.233 62.8128 155.417 69.5722L154.963 71.2538C153.176 71.7154 151.47 72.2759 149.847 72.9354L150.301 71.4516L153.932 59.8781C157.37 48.7333 159.089 42.1717 159.089 40.1934C159.089 39.1713 158.718 38.66 157.975 38.66C157.563 38.66 156.641 39.1053 155.21 39.9955L154.674 38.4622C158.525 36.2201 161.978 33.7307 165.03 30.9939C165.14 31.5874 165.195 32.1314 165.195 32.6262C165.195 35.165 164.246 39.402 162.349 45.3371L163.339 43.9523C169.747 35.5113 174.285 31.2907 176.953 31.2907C177.531 31.2907 178.164 31.505 178.852 31.9336ZM199.191 65.2693L199.934 66.555C197.046 69.16 193.098 71.2044 188.093 72.688C188.231 69.3578 189.866 63.6206 193.003 55.4762C189.454 60.4881 185.796 64.6427 182.028 67.9399C178.288 71.2373 175.317 72.8858 173.116 72.8858C171.192 72.8858 170.229 71.4187 170.229 68.484C170.229 63.5052 172.085 58.1305 175.798 52.3603C179.512 46.5571 184.173 41.7925 189.784 38.0665C196.111 33.8132 202.409 31.6864 208.68 31.6864C209.56 31.6864 210 32.082 210 32.8734C210 33.5329 209.588 34.7858 208.763 36.6323C206.892 36.2366 205.077 36.0388 203.317 36.0388C194.928 36.0388 187.708 39.9461 181.657 47.7605C177.201 53.4978 174.973 59.1857 174.973 64.8241C174.973 67.4619 175.785 68.7808 177.407 68.7808C178.783 68.7808 180.763 67.363 183.348 64.5273C185.933 61.6587 188.244 58.345 190.28 54.5861C193.085 49.3763 194.997 43.9687 196.015 38.3634C197.198 39.2206 197.788 40.8033 197.788 43.1115C197.788 46.3098 196.441 49.9863 193.745 54.1409C195.065 54.009 196.703 53.5474 198.655 52.756L198.325 53.5969C195.712 60.62 194.405 64.7251 194.405 65.9122C194.405 66.8684 194.776 67.3135 195.52 67.2477C196.207 67.1817 197.431 66.5221 199.191 65.2693Z" fill="white"/>
<path d="M71 76H200.799" stroke="white"/>
<path d="M86.4012 87.9259V93.8021C86.1266 94.091 85.6969 94.4081 85.1122 94.7533C84.5363 95.091 83.7701 95.3842 82.8134 95.631C81.8565 95.8766 80.6651 96 79.2387 96C78.0251 96 76.9133 95.8388 75.9034 95.5141C74.8934 95.183 74.0209 94.7003 73.2856 94.0661C72.5593 93.432 71.9966 92.6604 71.598 91.7524C71.1993 90.8358 71 89.7937 71 88.6239V87.5568C71 86.3935 71.1817 85.3579 71.5448 84.4488C71.917 83.5333 72.4485 82.7585 73.1395 82.1243C73.8304 81.4902 74.6632 81.0107 75.6376 80.6872C76.621 80.356 77.7327 80.1905 78.973 80.1905C80.5588 80.1905 81.8698 80.4015 82.9063 80.8246C83.9517 81.2402 84.7578 81.8181 85.3248 82.5572C85.8917 83.2974 86.2505 84.1426 86.4012 85.0938H83.1322C83.0259 84.5581 82.8177 84.0798 82.5077 83.6567C82.2065 83.2335 81.7724 82.9024 81.2054 82.6632C80.6474 82.4165 79.9209 82.2931 79.0262 82.2931C78.2555 82.2931 77.5777 82.41 76.993 82.6427C76.4083 82.8743 75.9212 83.2162 75.5313 83.6675C75.1505 84.1177 74.8625 84.6674 74.6675 85.3157C74.4727 85.9639 74.3753 86.7041 74.3753 87.5352V88.6239C74.3753 89.4691 74.486 90.2201 74.7074 90.8748C74.9378 91.5295 75.2656 92.0836 75.6908 92.5338C76.1249 92.985 76.652 93.327 77.2721 93.5586C77.8922 93.7848 78.592 93.8973 79.3717 93.8973C80.1336 93.8973 80.758 93.8475 81.2453 93.7491C81.7325 93.6441 82.1179 93.5207 82.4013 93.379C82.6937 93.2318 82.9196 93.0911 83.0791 92.9569V89.903H79.0527V87.9259H86.4012ZM100.196 93.0944V84.3547H103.412V95.789H100.382L100.196 93.0944ZM100.648 90.7157L101.724 90.6952C101.724 91.4635 101.618 92.1712 101.405 92.8195C101.193 93.4601 100.865 94.0207 100.422 94.5001C99.979 94.9719 99.4119 95.342 98.721 95.6093C98.03 95.8701 97.2017 96 96.236 96C95.5362 96 94.894 95.9188 94.3093 95.7576C93.7246 95.5953 93.2196 95.3453 92.7944 95.0066C92.378 94.6689 92.0547 94.2285 91.8243 93.6863C91.5941 93.143 91.4788 92.4948 91.4788 91.7416V84.3547H94.6813V91.7622C94.6813 92.1777 94.7433 92.5273 94.8674 92.8087C94.9914 93.0835 95.1597 93.3054 95.3724 93.4742C95.5849 93.6441 95.833 93.7631 96.1164 93.8335C96.4 93.9038 96.7011 93.9395 97.0201 93.9395C97.9326 93.9395 98.6501 93.7989 99.1727 93.5164C99.7042 93.2275 100.081 92.84 100.302 92.3541C100.533 91.8682 100.648 91.3217 100.648 90.7157ZM111.891 84.3547V95.789H108.675V84.3547H111.891ZM108.463 81.3527C108.463 80.9653 108.622 80.645 108.941 80.3907C109.269 80.1309 109.721 80 110.297 80C110.864 80 111.311 80.1309 111.639 80.3907C111.966 80.645 112.13 80.9653 112.13 81.3527C112.13 81.7336 111.966 82.0507 111.639 82.304C111.311 82.5572 110.864 82.6849 110.297 82.6849C109.721 82.6849 109.269 82.5572 108.941 82.304C108.622 82.0507 108.463 81.7336 108.463 81.3527ZM123.759 84.3547V86.2139H115.653V84.3547H123.759ZM117.993 81.554H121.194V92.629C121.194 92.9818 121.257 93.2524 121.381 93.4428C121.514 93.6257 121.695 93.7491 121.925 93.8129C122.156 93.8757 122.426 93.9082 122.736 93.9082C122.958 93.9082 123.17 93.8973 123.374 93.8757C123.578 93.8551 123.742 93.8335 123.865 93.8129L123.879 95.7576C123.614 95.8204 123.303 95.8766 122.948 95.9264C122.603 95.9762 122.204 96 121.752 96C121.017 96 120.366 95.8983 119.8 95.6937C119.232 95.4827 118.79 95.1407 118.47 94.6689C118.152 94.1971 117.993 93.5694 117.993 92.7881V81.554ZM136.105 93.4958V88.0427C136.105 87.6337 136.013 87.282 135.826 86.9855C135.641 86.69 135.357 86.4606 134.976 86.2983C134.604 86.137 134.135 86.0559 133.567 86.0559C133.045 86.0559 132.593 86.1262 132.212 86.2669C131.831 86.4076 131.534 86.598 131.322 86.8383C131.11 87.0774 131.002 87.3491 131.002 87.651H127.814C127.814 87.2008 127.952 86.7636 128.225 86.3416C128.5 85.9184 128.899 85.5418 129.421 85.2107C129.944 84.8795 130.568 84.6187 131.295 84.4283C132.022 84.2378 132.837 84.1426 133.74 84.1426C134.821 84.1426 135.779 84.2876 136.611 84.5765C137.452 84.8655 138.112 85.3016 138.591 85.887C139.078 86.4638 139.322 87.19 139.322 88.0633V93.1474C139.322 93.6679 139.365 94.1365 139.454 94.552C139.552 94.9611 139.689 95.3171 139.866 95.6202V95.789H136.584C136.433 95.5141 136.313 95.1656 136.225 94.7425C136.146 94.3129 136.105 93.8973 136.105 93.4958ZM136.57 88.8349L136.598 90.4095H134.298C133.705 90.4095 133.182 90.456 132.731 90.5469C132.279 90.6313 131.902 90.759 131.601 90.9278C131.3 91.0967 131.073 91.3012 130.923 91.5403C130.772 91.7806 130.698 92.0511 130.698 92.3541C130.698 92.6571 130.786 92.9353 130.963 93.1896C131.14 93.4363 131.397 93.63 131.734 93.7707C132.079 93.9114 132.495 93.9817 132.982 93.9817C133.638 93.9817 134.21 93.8757 134.697 93.6647C135.193 93.4461 135.583 93.182 135.867 92.8725C136.15 92.5554 136.301 92.2557 136.319 91.9743L137.354 93.1052C137.248 93.393 137.067 93.7036 136.81 94.0348C136.553 94.3659 136.217 94.683 135.8 94.986C135.392 95.2814 134.901 95.5249 134.325 95.7154C133.758 95.9048 133.102 96 132.359 96C131.419 96 130.582 95.8528 129.847 95.5563C129.111 95.2533 128.535 94.8486 128.119 94.341C127.703 93.827 127.494 93.2459 127.494 92.5976C127.494 91.9916 127.636 91.4559 127.92 90.9906C128.213 90.5188 128.637 90.1249 129.195 89.8078C129.763 89.4907 130.454 89.2505 131.269 89.0892C132.084 88.9193 133.014 88.8349 134.06 88.8349H136.57ZM147.655 86.5309V95.789H144.452V84.3547H147.508L147.655 86.5309ZM152.053 84.28L152.027 86.6478C151.832 86.6197 151.619 86.598 151.389 86.584C151.167 86.5699 150.946 86.5634 150.725 86.5634C150.175 86.5634 149.692 86.6262 149.275 86.7528C148.859 86.8729 148.509 87.0493 148.226 87.282C147.952 87.5071 147.739 87.7819 147.588 88.1055C147.437 88.4302 147.349 88.7927 147.323 89.1942L146.592 89.2364C146.592 88.5178 146.681 87.8523 146.857 87.2398C147.034 86.6262 147.3 86.0873 147.655 85.6219C148.018 85.1577 148.47 84.794 149.01 84.5343C149.56 84.2735 150.193 84.1426 150.91 84.1426C151.106 84.1426 151.314 84.1566 151.534 84.1848C151.766 84.2129 151.938 84.2454 152.053 84.28ZM163.895 92.6929C163.895 92.4386 163.815 92.2102 163.656 92.0057C163.496 91.7947 163.19 91.6042 162.738 91.4354C162.296 91.2655 161.64 91.1107 160.772 90.97C160.01 90.8358 159.311 90.6778 158.673 90.4939C158.044 90.3045 157.502 90.0751 157.051 89.8078C156.599 89.5394 156.249 89.2223 156.002 88.8565C155.754 88.4897 155.629 88.0676 155.629 87.5882C155.629 87.1229 155.758 86.6824 156.015 86.2669C156.271 85.8513 156.64 85.4856 157.117 85.1685C157.596 84.8514 158.176 84.6003 158.858 84.4174C159.549 84.2346 160.32 84.1426 161.171 84.1426C162.375 84.1426 163.408 84.3049 164.267 84.6296C165.135 84.9456 165.799 85.3795 166.26 85.9292C166.72 86.4714 166.951 87.0839 166.951 87.7679H163.748C163.748 87.4649 163.651 87.1835 163.456 86.9227C163.27 86.6543 162.986 86.44 162.605 86.2777C162.224 86.1089 161.746 86.0245 161.171 86.0245C160.621 86.0245 160.165 86.0948 159.802 86.2355C159.447 86.3697 159.182 86.545 159.005 86.7636C158.836 86.9822 158.752 87.2214 158.752 87.4822C158.752 87.6726 158.796 87.8458 158.885 88.0005C158.983 88.1477 159.142 88.2851 159.364 88.4128C159.584 88.5319 159.886 88.6444 160.267 88.7505C160.657 88.8565 161.144 88.9583 161.729 89.0567C162.827 89.2407 163.771 89.4766 164.559 89.7656C165.356 90.0469 165.967 90.4138 166.393 90.864C166.818 91.3077 167.03 91.8715 167.03 92.5554C167.03 93.0619 166.893 93.5272 166.619 93.9504C166.353 94.3659 165.963 94.7284 165.449 95.039C164.936 95.342 164.32 95.5779 163.603 95.7468C162.894 95.9156 162.096 96 161.21 96C159.908 96 158.805 95.8171 157.901 95.4513C156.998 95.0769 156.312 94.6018 155.842 94.0239C155.381 93.4396 155.151 92.8335 155.151 92.2059H158.247C158.282 92.6788 158.447 93.0554 158.739 93.3368C159.04 93.6116 159.411 93.8129 159.855 93.9395C160.307 94.0597 160.772 94.1192 161.25 94.1192C161.825 94.1192 162.308 94.0597 162.699 93.9395C163.088 93.8129 163.385 93.6441 163.589 93.432C163.793 93.2134 163.895 92.9677 163.895 92.6929Z" fill="white"/>
</svg>
