<svg width="184" height="96" viewBox="0 0 184 96" fill="none" xmlns="http://www.w3.org/2000/svg">
<path d="M86.1442 29.4723L83.5413 39.0882H82.2038C82.3243 38.6626 82.4087 38.3434 82.4568 38.1306C82.7219 37.1731 82.8545 36.375 82.8545 35.7367C82.8545 34.8322 82.505 34.2603 81.8062 34.0209C81.1073 33.7815 79.4324 33.6619 76.7814 33.6619H71.2144L70.7083 35.3774C68.6599 42.6127 66.3824 48.6508 63.8761 53.492C61.3938 58.3332 58.2729 62.7488 54.5133 66.7388C50.6815 70.8616 46.3316 74.0804 41.4634 76.3939C36.5952 78.7088 31.7632 79.8655 26.9675 79.8655C21.5451 79.8655 16.6648 78.5887 12.3269 76.0351C8.44693 73.774 5.42241 70.5819 3.25344 66.4592C1.08449 62.3364 0 57.748 0 52.6941C0 46.0174 1.91586 40.6708 5.74782 36.6543C9.57957 32.6377 14.6766 30.6295 21.039 30.6295C28.1725 30.6295 35.7879 34.2603 43.8854 41.5221C46.5845 43.9426 50.32 47.8528 55.0917 53.2527L56.2124 54.4894C57.4173 52.2285 58.0198 49.8478 58.0198 47.3474C58.0198 43.4638 56.4895 40.2453 53.4289 37.6917C50.3682 35.1381 46.3436 33.715 41.355 33.4224C41.9574 32.2786 42.4274 31.0018 42.7648 29.592L68.3947 29.4723C68.5876 28.7806 68.7321 28.262 68.8285 27.9162C69.8889 23.873 70.7565 20.9736 71.4313 19.218C72.106 17.4358 72.9736 15.8 74.0341 14.3104C76.0101 11.4908 78.7214 8.8174 82.1676 6.29039C85.6862 3.71024 88.6749 2.42017 91.1326 2.42017C91.6145 2.42017 92.2296 2.49997 92.9761 2.65957C92.6633 4.68112 91.9518 7.76675 90.8434 11.9163L90.5902 12.9139H89.2531C89.6869 11.2114 89.9033 10.0144 89.9033 9.32281C89.9033 7.62043 89.0718 6.76919 87.4093 6.76919C84.8306 6.76919 82.3243 7.83328 79.8903 9.96117C78.6129 11.1051 77.6129 12.5015 76.8899 14.1507C76.1669 15.7733 75.1908 18.8456 73.9617 23.3675L72.5881 28.5147L72.335 29.4723H86.1442ZM67.3826 33.6619L50.8623 33.5421C53.4168 34.8189 55.4894 36.6943 57.08 39.1679C58.6706 41.6151 59.4657 44.182 59.4657 46.8686C59.4657 51.0448 58.0559 55.6732 55.2364 60.7538C48.392 51.8163 41.7405 44.9667 35.2818 40.2054C28.8232 35.444 22.955 33.0633 17.6771 33.0633C13.0981 33.0633 9.30251 34.6992 6.29 37.9711C3.30169 41.2427 1.80747 45.379 1.80747 50.3798C1.80747 57.9874 4.4705 64.2388 9.79651 69.1328C15.1467 74.0536 21.9548 76.5139 30.2209 76.5139C39.4029 76.5139 47.175 72.8432 53.5373 65.5016C59.9237 58.1603 64.5388 47.547 67.3826 33.6619ZM103.098 41.0831C103.436 41.828 103.603 42.493 103.603 43.0783C103.603 45.6319 102.002 48.571 98.7966 51.8961C94.1213 56.7638 90.1442 59.1978 86.8671 59.1978C84.0473 59.1978 82.6376 57.4288 82.6376 53.891C82.6376 49.901 83.7341 45.7115 85.9271 41.3227C88.1448 36.9335 90.9757 33.316 94.4227 30.4698C98.6152 27.0118 102.351 25.2828 105.628 25.2828C107.532 25.2828 108.484 26.0542 108.484 27.5971C108.484 28.6078 108.026 29.8315 107.111 31.2678C106.195 32.6776 105.05 33.9544 103.676 35.0982C102.4 36.1355 100.772 37.0931 98.7966 37.9711C96.8445 38.8487 95.3383 39.2876 94.2781 39.2876C93.1452 39.2876 92.3619 38.596 91.9282 37.2129C92.9402 37.3725 93.7471 37.4523 94.3499 37.4523C96.7603 37.4523 98.9771 36.6943 101.001 35.1779C103.05 33.6352 104.075 31.9727 104.075 30.1905C104.075 28.9137 103.327 28.2753 101.833 28.2753C99.1576 28.2753 96.423 30.0841 93.6271 33.7017C91.6513 36.2552 90.0242 39.2344 88.7467 42.6392C87.4696 46.0441 86.8309 49.0765 86.8309 51.7364C86.8309 54.4762 87.867 55.8462 89.9401 55.8462C92.205 55.8462 94.555 54.4762 96.989 51.7364C99.4467 48.97 101.484 45.419 103.098 41.0831ZM125.764 3.8964C125.475 7.88639 122.173 18.154 115.859 34.6991L115.209 36.3351C117.835 33.2229 120.691 30.6693 123.776 28.6743C126.861 26.6793 129.524 25.6819 131.764 25.6819C133.982 25.6819 135.09 26.972 135.09 29.5521C135.09 32.4782 133.886 35.8829 131.475 39.7665C129.065 43.6501 125.994 47.1613 122.258 50.3C115.461 55.9393 108.894 58.7589 102.555 58.7589L103.062 57.4821C107.569 45.9376 111.473 35.5106 114.775 26.2005C118.101 16.8905 119.763 11.6769 119.763 10.5598C119.763 9.76175 119.329 9.36274 118.461 9.36274C117.932 9.36274 117.076 9.60218 115.895 10.081L115.498 8.84402C118.63 7.59387 122.052 5.94463 125.764 3.8964ZM107.978 54.7688C108.628 54.8752 109.123 54.9285 109.461 54.9285C114.786 54.9285 119.547 51.9625 123.74 46.0307C125.427 43.6367 126.824 41.0831 127.933 38.3699C129.065 35.6567 129.632 33.4623 129.632 31.7865C129.632 29.9246 128.837 28.9935 127.246 28.9935C124.499 28.9935 121.184 31.6004 117.304 36.8139C113.425 42.0009 110.317 47.9859 107.978 54.7688ZM156.708 25.7616L155.406 29.7915C154.491 29.5786 153.683 29.4723 152.985 29.4723C150.189 29.4723 147.201 31.8397 144.019 36.5745C142.525 38.8355 141.236 41.296 140.151 43.9559C139.092 46.616 137.766 50.6725 136.175 56.1255L135.777 57.4821C134.211 57.8544 132.717 58.3066 131.295 58.8386L131.692 57.6416L134.874 48.305C137.886 39.3143 139.392 34.0209 139.392 32.4249C139.392 31.6004 139.067 31.1879 138.416 31.1879C138.055 31.1879 137.247 31.5471 135.994 32.2653L135.524 31.0283C138.898 29.2196 141.924 27.2113 144.598 25.0035C144.694 25.4823 144.742 25.9211 144.742 26.3203C144.742 28.3684 143.911 31.7865 142.249 36.5745L143.116 35.4573C148.731 28.6478 152.707 25.2429 155.045 25.2429C155.551 25.2429 156.106 25.4158 156.708 25.7616ZM174.529 52.6542L175.18 53.6914C172.65 55.7929 169.191 57.4422 164.805 58.6391C164.926 55.9525 166.359 51.3242 169.107 44.7539C165.998 48.7971 162.793 52.1487 159.491 54.8087C156.214 57.4687 153.611 58.7986 151.683 58.7986C149.997 58.7986 149.153 57.6151 149.153 55.2476C149.153 51.2311 150.779 46.8952 154.033 42.2402C157.287 37.5587 161.371 33.715 166.287 30.7091C171.831 27.2779 177.349 25.5621 182.843 25.5621C183.614 25.5621 184 25.8813 184 26.5197C184 27.0518 183.639 28.0625 182.916 29.5521C181.277 29.2329 179.687 29.0733 178.144 29.0733C170.794 29.0733 164.468 32.2254 159.166 38.5295C155.262 43.1579 153.31 47.7464 153.31 52.2951C153.31 54.423 154.021 55.487 155.442 55.487C156.648 55.487 158.383 54.3433 160.648 52.0556C162.913 49.7415 164.938 47.0682 166.722 44.0358C169.179 39.833 170.855 35.4705 171.746 30.9486C172.783 31.6401 173.3 32.9169 173.3 34.779C173.3 37.3592 172.12 40.3251 169.758 43.6767C170.914 43.5703 172.349 43.1979 174.06 42.5595L173.77 43.2378C171.481 48.9035 170.336 52.2152 170.336 53.1729C170.336 53.9443 170.661 54.3033 171.313 54.2502C171.915 54.197 172.987 53.6649 174.529 52.6542Z" fill="#FFE458"/>
<path d="M62.2095 61.3109H175.938" stroke="#FFE458"/>
<path d="M75.7039 70.9318V75.6723C75.4633 75.9053 75.0868 76.1612 74.5744 76.4396C74.0698 76.7121 73.3985 76.9486 72.5603 77.1477C71.7218 77.3458 70.6779 77.4454 69.4281 77.4454C68.3648 77.4454 67.3906 77.3153 66.5058 77.0534C65.6208 76.7863 64.8564 76.3969 64.2121 75.8853C63.5757 75.3737 63.0827 74.7512 62.7334 74.0187C62.3841 73.2793 62.2095 72.4386 62.2095 71.4949V70.6341C62.2095 69.6956 62.3687 68.8602 62.6868 68.1268C63.0129 67.3882 63.4786 66.7632 64.0841 66.2515C64.6894 65.74 65.4191 65.3532 66.2729 65.0922C67.1345 64.825 68.1086 64.6915 69.1953 64.6915C70.5848 64.6915 71.7335 64.8617 72.6417 65.203C73.5576 65.5383 74.2639 66.0045 74.7607 66.6008C75.2574 67.1979 75.5718 67.8797 75.7039 68.6471H72.8396C72.7465 68.2149 72.564 67.8291 72.2924 67.4878C72.0285 67.1463 71.6481 66.8792 71.1513 66.6863C70.6624 66.4873 70.0259 66.3877 69.242 66.3877C68.5667 66.3877 67.9728 66.482 67.4605 66.6697C66.9482 66.8566 66.5214 67.1324 66.1798 67.4965C65.8461 67.8597 65.5938 68.3031 65.4229 68.8261C65.2522 69.349 65.1669 69.9462 65.1669 70.6166V71.4949C65.1669 72.1768 65.2639 72.7826 65.4579 73.3108C65.6597 73.8389 65.947 74.2859 66.3195 74.6491C66.6999 75.0131 67.1617 75.289 67.705 75.4758C68.2484 75.6583 68.8615 75.7491 69.5447 75.7491C70.2122 75.7491 70.7593 75.7089 71.1863 75.6295C71.6132 75.5448 71.9509 75.4453 72.1992 75.331C72.4554 75.2122 72.6533 75.0987 72.7931 74.9904V72.5268H69.2652V70.9318H75.7039ZM87.7907 75.1014V68.0508H90.6086V77.2752H87.9537L87.7907 75.1014ZM88.1868 73.1824L89.1295 73.1659C89.1295 73.7857 89.0367 74.3566 88.85 74.8796C88.6643 75.3964 88.3769 75.8486 87.9887 76.2354C87.6006 76.616 87.1037 76.9145 86.4983 77.1302C85.8929 77.3406 85.1672 77.4454 84.321 77.4454C83.7079 77.4454 83.1452 77.3799 82.6329 77.2498C82.1206 77.1189 81.6781 76.9172 81.3055 76.644C80.9407 76.3715 80.6574 76.0163 80.4555 75.5789C80.2538 75.1406 80.1528 74.6177 80.1528 74.01V68.0508H82.9588V74.0266C82.9588 74.3618 83.0131 74.6439 83.1219 74.8709C83.2305 75.0926 83.378 75.2716 83.5643 75.4078C83.7505 75.5448 83.9679 75.6408 84.2162 75.6976C84.4647 75.7543 84.7285 75.7831 85.008 75.7831C85.8076 75.7831 86.4362 75.6697 86.8941 75.4418C87.3598 75.2087 87.69 74.8961 87.8836 74.5041C88.086 74.1122 88.1868 73.6713 88.1868 73.1824ZM98.0378 68.0508V77.2752H95.22V68.0508H98.0378ZM95.0342 65.6291C95.0342 65.3165 95.1735 65.0581 95.453 64.853C95.7404 64.6434 96.1364 64.5378 96.6411 64.5378C97.1379 64.5378 97.5296 64.6434 97.817 64.853C98.1035 65.0581 98.2472 65.3165 98.2472 65.6291C98.2472 65.9363 98.1035 66.1922 97.817 66.3965C97.5296 66.6008 97.1379 66.7038 96.6411 66.7038C96.1364 66.7038 95.7404 66.6008 95.453 66.3965C95.1735 66.1922 95.0342 65.9363 95.0342 65.6291ZM108.436 68.0508V69.5507H101.334V68.0508H108.436ZM103.384 65.7915H106.189V74.7259C106.189 75.0105 106.244 75.2288 106.353 75.3824C106.469 75.53 106.628 75.6295 106.829 75.681C107.032 75.7317 107.268 75.7579 107.54 75.7579C107.735 75.7579 107.92 75.7491 108.099 75.7317C108.278 75.715 108.422 75.6976 108.529 75.681L108.542 77.2498C108.309 77.3005 108.037 77.3458 107.726 77.386C107.424 77.4262 107.074 77.4454 106.678 77.4454C106.034 77.4454 105.463 77.3633 104.968 77.1983C104.47 77.0281 104.083 76.7522 103.802 76.3715C103.524 75.9909 103.384 75.4846 103.384 74.8543V65.7915ZM119.254 75.4252V71.026C119.254 70.6961 119.173 70.4124 119.009 70.1732C118.847 69.9348 118.598 69.7497 118.265 69.6188C117.939 69.4887 117.528 69.4232 117.03 69.4232C116.573 69.4232 116.177 69.48 115.843 69.5935C115.509 69.707 115.249 69.8606 115.063 70.0544C114.877 70.2473 114.783 70.4665 114.783 70.71H111.989C111.989 70.3469 112.11 69.9942 112.349 69.6537C112.59 69.3123 112.94 69.0085 113.397 68.7414C113.856 68.4742 114.402 68.2638 115.039 68.1102C115.676 67.9565 116.39 67.8797 117.182 67.8797C118.129 67.8797 118.968 67.9967 119.697 68.2298C120.434 68.4629 121.012 68.8147 121.432 69.287C121.859 69.7523 122.073 70.3381 122.073 71.0427V75.1441C122.073 75.564 122.11 75.942 122.188 76.2772C122.274 76.6073 122.394 76.8945 122.549 77.139V77.2752H119.674C119.541 77.0534 119.436 76.7722 119.359 76.4309C119.29 76.0844 119.254 75.7491 119.254 75.4252ZM119.661 71.6651L119.686 72.9354H117.671C117.151 72.9354 116.693 72.9729 116.298 73.0462C115.902 73.1143 115.571 73.2173 115.307 73.3535C115.044 73.4898 114.845 73.6547 114.713 73.8476C114.581 74.0415 114.516 74.2597 114.516 74.5041C114.516 74.7486 114.593 74.973 114.748 75.1782C114.904 75.3772 115.129 75.5334 115.424 75.6469C115.726 75.7605 116.091 75.8172 116.518 75.8172C117.092 75.8172 117.593 75.7317 118.02 75.5614C118.455 75.3851 118.796 75.172 119.045 74.9223C119.293 74.6665 119.426 74.4248 119.441 74.1977L120.348 75.1101C120.255 75.3422 120.097 75.5928 119.872 75.86C119.646 76.1271 119.352 76.3829 118.987 76.6274C118.629 76.8657 118.199 77.0621 117.694 77.2158C117.197 77.3686 116.623 77.4454 115.972 77.4454C115.148 77.4454 114.415 77.3266 113.771 77.0874C113.126 76.843 112.621 76.5165 112.257 76.107C111.892 75.6924 111.709 75.2236 111.709 74.7006C111.709 74.2117 111.833 73.7795 112.082 73.4042C112.339 73.0236 112.71 72.7058 113.199 72.45C113.697 72.1942 114.302 72.0004 115.017 71.8703C115.731 71.7332 116.546 71.6651 117.462 71.6651H119.661ZM129.374 69.8064V77.2752H126.567V68.0508H129.245L129.374 69.8064ZM133.227 67.9906L133.205 69.9007C133.034 69.8781 132.847 69.8606 132.646 69.8493C132.451 69.8379 132.257 69.8327 132.064 69.8327C131.582 69.8327 131.159 69.8833 130.793 69.9854C130.429 70.0823 130.122 70.2246 129.874 70.4124C129.634 70.594 129.447 70.8156 129.315 71.0767C129.183 71.3386 129.106 71.6311 129.083 71.955L128.442 71.989C128.442 71.4093 128.52 70.8724 128.675 70.3783C128.83 69.8833 129.063 69.4486 129.374 69.0731C129.692 68.6986 130.088 68.4052 130.561 68.1957C131.043 67.9853 131.598 67.8797 132.226 67.8797C132.398 67.8797 132.58 67.891 132.773 67.9138C132.976 67.9365 133.127 67.9627 133.227 67.9906ZM143.603 74.7775C143.603 74.5723 143.533 74.3881 143.394 74.2231C143.254 74.0529 142.985 73.8992 142.589 73.763C142.202 73.6259 141.627 73.5011 140.867 73.3876C140.199 73.2793 139.587 73.1518 139.028 73.0035C138.477 72.8507 138.002 72.6656 137.607 72.45C137.21 72.2335 136.904 71.9776 136.687 71.6825C136.47 71.3866 136.361 71.0461 136.361 70.6594C136.361 70.284 136.474 69.9287 136.699 69.5935C136.923 69.2582 137.246 68.9632 137.664 68.7074C138.084 68.4515 138.592 68.249 139.19 68.1014C139.795 67.954 140.471 67.8797 141.216 67.8797C142.271 67.8797 143.176 68.0107 143.929 68.2726C144.69 68.5275 145.271 68.8776 145.675 69.321C146.078 69.7584 146.281 70.2526 146.281 70.8044H143.474C143.474 70.5599 143.389 70.3329 143.219 70.1225C143.056 69.906 142.807 69.7331 142.473 69.6022C142.139 69.466 141.72 69.3979 141.216 69.3979C140.735 69.3979 140.335 69.4546 140.017 69.5681C139.706 69.6764 139.474 69.8178 139.319 69.9942C139.171 70.1705 139.097 70.3635 139.097 70.5739C139.097 70.7275 139.135 70.8672 139.213 70.992C139.299 71.1107 139.439 71.2216 139.633 71.3246C139.826 71.4207 140.091 71.5114 140.424 71.597C140.766 71.6826 141.193 71.7647 141.705 71.8441C142.667 71.9925 143.495 72.1828 144.185 72.4159C144.883 72.6429 145.419 72.9389 145.792 73.302C146.164 73.66 146.35 74.1148 146.35 74.6665C146.35 75.0751 146.23 75.4505 145.99 75.7919C145.757 76.1271 145.415 76.4195 144.965 76.6701C144.515 76.9146 143.976 77.1049 143.347 77.2411C142.726 77.3773 142.027 77.4454 141.251 77.4454C140.11 77.4454 139.143 77.2978 138.351 77.0027C137.56 76.7007 136.959 76.3174 136.547 75.8512C136.143 75.3798 135.942 74.8909 135.942 74.3846H138.654C138.685 74.7661 138.83 75.0699 139.086 75.2969C139.349 75.5186 139.674 75.681 140.063 75.7831C140.459 75.8801 140.867 75.9281 141.286 75.9281C141.789 75.9281 142.213 75.8801 142.555 75.7831C142.896 75.681 143.156 75.5448 143.335 75.3737C143.514 75.1974 143.603 74.9992 143.603 74.7775Z" fill="#FFE458"/>
</svg>
